<?xml version="1.0" encoding="UTF-8" standalone="no"?>
<!DOCTYPE svg PUBLIC "-//W3C//DTD SVG 1.1//EN"
 "http://www.w3.org/Graphics/SVG/1.1/DTD/svg11.dtd">
<!-- Generated by graphviz version 2.43.0 (0)
 -->
<!-- Title: Graphical Class Hierarchy Pages: 1 -->
<svg width="270pt" height="64pt"
 viewBox="0.00 0.00 270.00 64.00" xmlns="http://www.w3.org/2000/svg" xmlns:xlink="http://www.w3.org/1999/xlink">
<g id="graph0" class="graph" transform="scale(1 1) rotate(0) translate(4 60)">
<title>Graphical Class Hierarchy</title>
<!-- Node0 -->
<g id="Node000000" class="node">
<title>Node0</title>
<g id="a_Node000000"><a xlink:href="classImRt_1_1ParameterLayout.html" target="_top" xlink:title="This class serves as a skeleton a parameter. Note that a parameter layout does not have a current par...">
<polygon fill="white" stroke="#666666" points="119,-37 0,-37 0,-18 119,-18 119,-37"/>
<text text-anchor="middle" x="59.5" y="-25" font-family="Helvetica,sans-Serif" font-size="10.00">ImRt::ParameterLayout</text>
</a>
</g>
</g>
<!-- Node1 -->
<g id="Node000001" class="node">
<title>Node1</title>
<g id="a_Node000001"><a xlink:href="classImRt_1_1DspParameter.html" target="_top" xlink:title="This class fills the skeleton given by a parameter with life. It has a parameter value to which chang...">
<polygon fill="white" stroke="#666666" points="262,-56 155,-56 155,-37 262,-37 262,-56"/>
<text text-anchor="middle" x="208.5" y="-44" font-family="Helvetica,sans-Serif" font-size="10.00">ImRt::DspParameter</text>
</a>
</g>
</g>
<!-- Node0&#45;&gt;Node1 -->
<g id="edge1_Node000000_Node000001" class="edge">
<title>Node0&#45;&gt;Node1</title>
<g id="a_edge1_Node000000_Node000001"><a xlink:title=" ">
<path fill="none" stroke="#63b8ff" d="M129.12,-36.37C137.78,-37.49 146.53,-38.62 154.89,-39.7"/>
<polygon fill="#63b8ff" stroke="#63b8ff" points="129.39,-32.87 119.02,-35.06 128.49,-39.82 129.39,-32.87"/>
</a>
</g>
</g>
<!-- Node2 -->
<g id="Node000002" class="node">
<title>Node2</title>
<g id="a_Node000002"><a xlink:href="structImRt_1_1GuiParameter.html" target="_top" xlink:title="This class fills the skeleton given by a parameter with life. It has parameter value as a public memb...">
<polygon fill="white" stroke="#666666" points="260.5,-19 156.5,-19 156.5,0 260.5,0 260.5,-19"/>
<text text-anchor="middle" x="208.5" y="-7" font-family="Helvetica,sans-Serif" font-size="10.00">ImRt::GuiParameter</text>
</a>
</g>
</g>
<!-- Node0&#45;&gt;Node2 -->
<g id="edge2_Node000000_Node000002" class="edge">
<title>Node0&#45;&gt;Node2</title>
<g id="a_edge2_Node000000_Node000002"><a xlink:title=" ">
<path fill="none" stroke="#63b8ff" d="M129.24,-19.08C138.35,-17.97 147.56,-16.84 156.3,-15.77"/>
<polygon fill="#63b8ff" stroke="#63b8ff" points="128.52,-15.64 119.02,-20.33 129.37,-22.59 128.52,-15.64"/>
</a>
</g>
</g>
</g>
</svg>
